<svg width="88" height="14" viewBox="0 0 88 14" fill="none" xmlns="http://www.w3.org/2000/svg">
<path d="M3.224 0.834999V6.152C3.224 6.646 3.33667 7.02733 3.562 7.296C3.796 7.56467 4.147 7.699 4.615 7.699C5.083 7.699 5.434 7.56467 5.668 7.296C5.91067 7.01867 6.032 6.63733 6.032 6.152V0.834999H8.58V6.152C8.58 6.99267 8.40233 7.712 8.047 8.31C7.69167 8.89933 7.20633 9.34567 6.591 9.649C5.98433 9.94367 5.30833 10.091 4.563 10.091C3.81767 10.091 3.15033 9.94367 2.561 9.649C1.98033 9.34567 1.521 8.89933 1.183 8.31C0.853667 7.72067 0.689 7.00133 0.689 6.152V0.834999H3.224ZM12.5309 3.994C12.8169 3.578 13.1635 3.24867 13.5709 3.006C13.9782 2.76333 14.4159 2.642 14.8839 2.642V5.359H14.1689C13.6142 5.359 13.2025 5.46733 12.9339 5.684C12.6652 5.90067 12.5309 6.27767 12.5309 6.815V10H9.98288V2.707H12.5309V3.994ZM18.3453 3.721C18.5447 3.37433 18.8263 3.10567 19.1903 2.915C19.5543 2.71567 19.9833 2.616 20.4773 2.616C21.058 2.616 21.5823 2.76767 22.0503 3.071C22.527 3.37433 22.8997 3.80767 23.1683 4.371C23.4457 4.93433 23.5843 5.593 23.5843 6.347C23.5843 7.101 23.4457 7.764 23.1683 8.336C22.8997 8.89933 22.527 9.33267 22.0503 9.636C21.5823 9.93933 21.058 10.091 20.4773 10.091C19.9833 10.091 19.5543 9.99567 19.1903 9.805C18.8263 9.60567 18.5447 9.33267 18.3453 8.986V10H15.7973V0.38H18.3453V3.721ZM20.9973 6.347C20.9973 5.87033 20.8673 5.502 20.6073 5.242C20.356 4.97333 20.044 4.839 19.6713 4.839C19.2987 4.839 18.9823 4.97333 18.7223 5.242C18.471 5.51067 18.3453 5.879 18.3453 6.347C18.3453 6.82367 18.471 7.19633 18.7223 7.465C18.9823 7.73367 19.2987 7.868 19.6713 7.868C20.044 7.868 20.356 7.73367 20.6073 7.465C20.8673 7.18767 20.9973 6.815 20.9973 6.347ZM24.2173 6.347C24.2173 5.593 24.3516 4.93433 24.6203 4.371C24.8976 3.80767 25.2703 3.37433 25.7383 3.071C26.2149 2.76767 26.7436 2.616 27.3243 2.616C27.8269 2.616 28.2603 2.71567 28.6243 2.915C28.9883 3.11433 29.2699 3.383 29.4693 3.721V2.707H32.0173V10H29.4693V8.986C29.2699 9.324 28.9839 9.59267 28.6113 9.792C28.2473 9.99133 27.8183 10.091 27.3243 10.091C26.7436 10.091 26.2149 9.93933 25.7383 9.636C25.2703 9.33267 24.8976 8.89933 24.6203 8.336C24.3516 7.764 24.2173 7.101 24.2173 6.347ZM29.4693 6.347C29.4693 5.879 29.3393 5.51067 29.0793 5.242C28.8279 4.97333 28.5159 4.839 28.1433 4.839C27.7619 4.839 27.4456 4.97333 27.1943 5.242C26.9429 5.502 26.8173 5.87033 26.8173 6.347C26.8173 6.815 26.9429 7.18767 27.1943 7.465C27.4456 7.73367 27.7619 7.868 28.1433 7.868C28.5159 7.868 28.8279 7.73367 29.0793 7.465C29.3393 7.19633 29.4693 6.82367 29.4693 6.347ZM38.2402 2.642C39.0809 2.642 39.7482 2.92367 40.2422 3.487C40.7362 4.04167 40.9832 4.79567 40.9832 5.749V10H38.4352V6.087C38.4352 5.671 38.3269 5.346 38.1102 5.112C37.8935 4.86933 37.6032 4.748 37.2392 4.748C36.8579 4.748 36.5589 4.86933 36.3422 5.112C36.1255 5.346 36.0172 5.671 36.0172 6.087V10H33.4692V2.707H36.0172V3.747C36.2425 3.41767 36.5459 3.15333 36.9272 2.954C37.3085 2.746 37.7462 2.642 38.2402 2.642ZM53.7876 0.834999L50.6286 10H47.3656L44.1936 0.834999H46.9236L49.0036 7.452L51.0706 0.834999H53.7876ZM57.9745 10.091C57.2465 10.091 56.5922 9.93933 56.0115 9.636C55.4395 9.33267 54.9888 8.89933 54.6595 8.336C54.3302 7.77267 54.1655 7.10967 54.1655 6.347C54.1655 5.593 54.3302 4.93433 54.6595 4.371C54.9975 3.80767 55.4525 3.37433 56.0245 3.071C56.6052 2.76767 57.2595 2.616 57.9875 2.616C58.7155 2.616 59.3655 2.76767 59.9375 3.071C60.5182 3.37433 60.9732 3.80767 61.3025 4.371C61.6405 4.93433 61.8095 5.593 61.8095 6.347C61.8095 7.101 61.6405 7.764 61.3025 8.336C60.9732 8.89933 60.5182 9.33267 59.9375 9.636C59.3568 9.93933 58.7025 10.091 57.9745 10.091ZM57.9745 7.881C58.3298 7.881 58.6245 7.751 58.8585 7.491C59.1012 7.22233 59.2225 6.841 59.2225 6.347C59.2225 5.853 59.1012 5.476 58.8585 5.216C58.6245 4.956 58.3342 4.826 57.9875 4.826C57.6408 4.826 57.3505 4.956 57.1165 5.216C56.8825 5.476 56.7655 5.853 56.7655 6.347C56.7655 6.84967 56.8782 7.231 57.1035 7.491C57.3288 7.751 57.6192 7.881 57.9745 7.881ZM70.3082 2.707V10H67.7472V8.96C67.5305 9.28933 67.2315 9.558 66.8502 9.766C66.4688 9.96533 66.0312 10.065 65.5372 10.065C64.6878 10.065 64.0162 9.78767 63.5222 9.233C63.0368 8.66967 62.7942 7.907 62.7942 6.945V2.707H65.3292V6.62C65.3292 7.036 65.4375 7.36533 65.6542 7.608C65.8795 7.842 66.1742 7.959 66.5382 7.959C66.9108 7.959 67.2055 7.842 67.4222 7.608C67.6388 7.36533 67.7472 7.036 67.7472 6.62V2.707H70.3082ZM74.4493 2.616C74.9433 2.616 75.3723 2.71567 75.7363 2.915C76.1089 3.11433 76.3949 3.383 76.5943 3.721V2.707H79.1423V9.922C79.1423 10.6067 79.0123 11.222 78.7523 11.768C78.4923 12.3227 78.0849 12.7647 77.5303 13.094C76.9843 13.4233 76.2909 13.588 75.4503 13.588C74.3236 13.588 73.4223 13.3237 72.7463 12.795C72.0703 12.2663 71.6846 11.547 71.5893 10.637H74.0983C74.1503 10.871 74.2803 11.053 74.4883 11.183C74.6963 11.313 74.9649 11.378 75.2943 11.378C76.1609 11.378 76.5943 10.8927 76.5943 9.922V8.986C76.3949 9.324 76.1089 9.59267 75.7363 9.792C75.3723 9.99133 74.9433 10.091 74.4493 10.091C73.8686 10.091 73.3399 9.93933 72.8633 9.636C72.3953 9.33267 72.0226 8.89933 71.7453 8.336C71.4766 7.764 71.3423 7.101 71.3423 6.347C71.3423 5.593 71.4766 4.93433 71.7453 4.371C72.0226 3.80767 72.3953 3.37433 72.8633 3.071C73.3399 2.76767 73.8686 2.616 74.4493 2.616ZM76.5943 6.347C76.5943 5.879 76.4643 5.51067 76.2043 5.242C75.9529 4.97333 75.6409 4.839 75.2683 4.839C74.8869 4.839 74.5706 4.97333 74.3193 5.242C74.0679 5.502 73.9423 5.87033 73.9423 6.347C73.9423 6.815 74.0679 7.18767 74.3193 7.465C74.5706 7.73367 74.8869 7.868 75.2683 7.868C75.6409 7.868 75.9529 7.73367 76.2043 7.465C76.4643 7.19633 76.5943 6.82367 76.5943 6.347ZM87.5622 6.269C87.5622 6.46833 87.5492 6.66767 87.5232 6.867H82.7002C82.7262 7.26567 82.8345 7.56467 83.0252 7.764C83.2245 7.95467 83.4759 8.05 83.7792 8.05C84.2039 8.05 84.5072 7.85933 84.6892 7.478H87.4062C87.2935 7.98067 87.0725 8.43133 86.7432 8.83C86.4225 9.22 86.0152 9.52767 85.5212 9.753C85.0272 9.97833 84.4812 10.091 83.8832 10.091C83.1639 10.091 82.5225 9.93933 81.9592 9.636C81.4045 9.33267 80.9669 8.89933 80.6462 8.336C80.3342 7.77267 80.1782 7.10967 80.1782 6.347C80.1782 5.58433 80.3342 4.92567 80.6462 4.371C80.9582 3.80767 81.3915 3.37433 81.9462 3.071C82.5095 2.76767 83.1552 2.616 83.8832 2.616C84.6025 2.616 85.2395 2.76333 85.7942 3.058C86.3489 3.35267 86.7822 3.77733 87.0942 4.332C87.4062 4.878 87.5622 5.52367 87.5622 6.269ZM84.9622 5.632C84.9622 5.32 84.8582 5.07733 84.6502 4.904C84.4422 4.722 84.1822 4.631 83.8702 4.631C83.5582 4.631 83.3025 4.71767 83.1032 4.891C82.9039 5.05567 82.7739 5.30267 82.7132 5.632H84.9622Z" fill="#004B96"/>
</svg>
